<svg width="764" height="623" viewBox="0 0 764 623" fill="none" xmlns="http://www.w3.org/2000/svg">
<g id="undraw_Bookshelves_re_lxoy 1">
<g id="flower2">
<path id="Vector" d="M278.898 476.803C274.707 469.285 275.693 460.287 277.2 452.157C278.774 443.67 280.837 435.052 279.052 426.42C278.243 422.229 276.327 418.339 273.508 415.162C272.151 413.669 269.958 415.899 271.311 417.387C276.581 423.184 277.192 431.593 276.338 439.062C275.329 447.87 272.472 456.454 272.826 465.405C272.919 469.945 274.081 474.397 276.215 478.391C276.43 478.737 276.769 478.984 277.161 479.08C277.553 479.177 277.966 479.116 278.314 478.91C278.662 478.704 278.917 478.369 279.026 477.976C279.135 477.583 279.089 477.163 278.898 476.803L278.898 476.803Z" fill="#3F3D56"/>
<path id="Vector_2" d="M275.79 406.46C276.902 412.437 275.525 417.717 272.715 418.253C269.904 418.789 266.724 414.379 265.612 408.402C264.5 402.425 267.92 392.486 267.92 392.486C267.92 392.486 274.678 400.483 275.79 406.46Z" fill="#0AC53E"/>
</g>
<g id="flower1">
<path id="Vector_3" d="M278.009 472.571C275.696 466.958 275.442 460.692 277.292 454.905C279.143 449.118 282.976 444.192 288.1 441.017C289.806 439.967 288.247 437.245 286.532 438.301C280.655 441.854 276.269 447.466 274.204 454.075C272.139 460.683 272.538 467.829 275.326 474.16C276.11 476.016 278.787 474.415 278.009 472.571H278.009Z" fill="#3F3D56"/>
<path id="Vector_4" d="M297.119 434.267C293.597 439.193 288.864 441.811 286.547 440.112C284.231 438.414 285.208 433.043 288.729 428.117C292.251 423.19 301.73 418.873 301.73 418.873C301.73 418.873 300.641 429.34 297.119 434.267Z" fill="#0AC53E"/>
</g>
<path id="Vector_5" d="M244.407 496.092C244.409 497.213 244.849 498.286 245.63 499.077C246.41 499.868 247.467 500.311 248.568 500.312H301.388C302.489 500.311 303.546 499.868 304.327 499.077C305.108 498.286 305.548 497.213 305.549 496.092V480.381C305.545 476.474 304.01 472.73 301.284 469.969C298.558 467.209 294.863 465.657 291.011 465.652C291.011 465.652 291.011 465.652 291.011 465.652M244.407 496.092L291.011 465.152L291.011 465.652M244.407 496.092V480.381C244.412 476.474 245.946 472.73 248.673 469.969C251.399 467.209 255.093 465.657 258.945 465.652M244.407 496.092L281.21 456.238M291.011 465.652L283.264 465.652H283.263C282.717 465.652 282.194 465.432 281.81 465.042C281.426 464.653 281.211 464.127 281.21 463.58V463.579V456.238M291.011 465.652L281.21 456.238M281.21 456.238L281.71 456.237H281.21V456.238ZM281.21 456.238C281.21 455.673 280.988 455.133 280.595 454.736C280.203 454.338 279.673 454.116 279.121 454.115M279.121 454.115H279.121V453.617L279.121 454.115C279.121 454.115 279.121 454.115 279.121 454.115ZM279.121 454.115H270.836M270.836 454.115C270.836 454.115 270.836 454.115 270.836 454.115L270.836 453.616V454.115H270.836ZM270.836 454.115C270.284 454.116 269.754 454.338 269.361 454.736C268.969 455.133 268.747 455.673 268.746 456.238M268.746 456.238V456.237H268.246L268.746 456.238ZM268.746 456.238V463.579V463.58C268.746 464.127 268.531 464.653 268.147 465.042C267.762 465.432 267.24 465.652 266.693 465.652L266.693 465.652L258.946 465.652M258.946 465.652L258.945 465.152V465.652M258.946 465.652C258.946 465.652 258.946 465.652 258.945 465.652M258.946 465.652L258.945 465.652" fill="#CCCCCC" stroke="#898080"/>
<g id="flower4">
<path id="Vector_6" d="M181.542 99.2275C177.351 91.7091 178.337 82.7117 179.845 74.5813C181.418 66.0939 183.481 57.4764 181.696 48.8443C180.887 44.6533 178.971 40.7628 176.152 37.5865C174.795 36.0936 172.602 38.3231 173.955 39.8114C179.226 45.6082 179.837 54.0175 178.982 61.4858C177.974 70.2944 175.116 78.878 175.471 87.829C175.563 92.3693 176.725 96.8215 178.859 100.816C179.074 101.161 179.413 101.408 179.805 101.505C180.197 101.601 180.61 101.54 180.958 101.334C181.306 101.128 181.562 100.793 181.671 100.4C181.78 100.007 181.733 99.5868 181.542 99.2275L181.542 99.2275Z" fill="#3F3D56"/>
<path id="Vector_7" d="M178.434 28.8841C179.546 34.8611 178.17 40.1411 175.359 40.6773C172.548 41.2136 169.369 36.8031 168.256 30.8262C167.144 24.8492 170.565 14.9102 170.565 14.9102C170.565 14.9102 177.322 22.9072 178.434 28.8841Z" fill="#0AC53E"/>
</g>
<g id="flower3">
<path id="Vector_8" d="M180.653 94.9956C178.34 89.382 178.086 83.1157 179.937 77.3289C181.787 71.5421 185.621 66.6164 190.744 63.4417C192.45 62.3911 190.891 59.669 189.176 60.7248C183.299 64.2783 178.913 69.8906 176.848 76.4991C174.783 83.1075 175.182 90.2534 177.97 96.5837C178.754 98.4399 181.432 96.8387 180.653 94.9956H180.653Z" fill="#3F3D56"/>
<path id="Vector_9" d="M199.763 56.6909C196.241 61.6176 191.508 64.2348 189.192 62.5365C186.875 60.8382 187.852 55.4675 191.374 50.5408C194.895 45.6141 204.374 41.2969 204.374 41.2969C204.374 41.2969 203.285 51.7641 199.763 56.6909Z" fill="#0AC53E"/>
</g>
<path id="Vector_10" d="M206.971 121.501C206.19 122.292 205.133 122.735 204.032 122.737H151.213C150.111 122.735 149.054 122.292 148.274 121.501C147.493 120.711 147.053 119.637 147.051 118.517V102.805C147.056 98.8983 148.591 95.154 151.317 92.3933C154.043 89.6327 157.738 88.081 161.59 88.0766L169.337 88.0766L169.337 88.0766C169.884 88.076 170.406 87.8559 170.791 87.4666C171.175 87.0776 171.39 86.5514 171.39 86.0039V86.0034V78.6622C171.391 78.0974 171.613 77.5572 172.005 77.1597C172.398 76.7625 172.928 76.5403 173.48 76.5396H181.765C182.317 76.5403 182.847 76.7625 183.24 77.1597C183.632 77.5572 183.854 78.0974 183.855 78.6622V86.0034V86.0039C183.855 86.5514 184.07 87.0776 184.454 87.4666C184.839 87.8559 185.361 88.076 185.908 88.0766H185.908H193.655C197.507 88.081 201.202 89.6327 203.928 92.3933C206.654 95.1541 208.189 98.8985 208.193 102.806V118.516C208.192 119.637 207.752 120.711 206.971 121.501Z" fill="#CCCCCC" stroke="#898080"/>
<path id="Vector_11" d="M351.102 121.089H1.03571V123.187H351.102V121.089Z" fill="#3F3D56"/>
<path id="Vector_12" d="M351.102 246.981H1.03571V249.079H351.102V246.981Z" fill="#3F3D56"/>
<path id="Vector_13" d="M351.102 372.872H1.03571V374.97H351.102V372.872Z" fill="#3F3D56"/>
<path id="Vector_14" d="M351.102 498.764H1.03571V500.862H351.102V498.764Z" fill="#3F3D56"/>
<g id="book5">
<path id="Vector_15" d="M75.6061 285.279H33.1424V301.012H75.6061V285.279Z" fill="#1DA85D"/>
<path id="Vector_16" d="M75.6061 336.672H33.1424V352.404H75.6061V336.672Z" fill="#1DA85D"/>
<path id="Vector_17" d="M72.499 375.478H37.2852C35.9123 375.477 34.596 374.923 33.6252 373.94C32.6544 372.957 32.1083 371.624 32.1067 370.234V268.498C32.1083 267.108 32.6544 265.775 33.6252 264.792C34.596 263.809 35.9123 263.256 37.2852 263.254H72.499C73.8719 263.256 75.1882 263.809 76.159 264.792C77.1298 265.775 77.6759 267.108 77.6775 268.498V370.234C77.6759 371.624 77.1298 372.957 76.159 373.94C75.1882 374.923 73.8719 375.477 72.499 375.478V375.478ZM37.2852 265.352C36.4614 265.353 35.6717 265.685 35.0892 266.274C34.5067 266.864 34.179 267.664 34.1781 268.498V370.234C34.179 371.068 34.5067 371.868 35.0892 372.458C35.6717 373.048 36.4614 373.38 37.2852 373.38H72.499C73.3227 373.38 74.1125 373.048 74.695 372.458C75.2775 371.868 75.6052 371.068 75.6061 370.234V268.498C75.6052 267.664 75.2775 266.864 74.695 266.274C74.1125 265.685 73.3227 265.353 72.499 265.352H37.2852Z" fill="#3F3D56"/>
</g>
<g id="book6">
<path id="Vector_18" d="M140.855 285.279H98.3915V301.012H140.855V285.279Z" fill="#1DA85D"/>
<path id="Vector_19" d="M140.855 336.672H98.3915V352.404H140.855V336.672Z" fill="#1DA85D"/>
<path id="Vector_20" d="M137.748 375.478H102.534C101.161 375.477 99.8451 374.923 98.8743 373.94C97.9035 372.957 97.3574 371.624 97.3558 370.234V268.498C97.3574 267.108 97.9035 265.775 98.8743 264.792C99.8451 263.809 101.161 263.256 102.534 263.254H137.748C139.121 263.256 140.437 263.809 141.408 264.792C142.379 265.775 142.925 267.108 142.927 268.498V370.234C142.925 371.624 142.379 372.957 141.408 373.94C140.437 374.923 139.121 375.477 137.748 375.478V375.478ZM102.534 265.352C101.711 265.353 100.921 265.685 100.338 266.274C99.7558 266.864 99.4281 267.664 99.4272 268.498V370.234C99.4281 371.068 99.7558 371.868 100.338 372.458C100.921 373.048 101.711 373.38 102.534 373.38H137.748C138.572 373.38 139.362 373.048 139.944 372.458C140.527 371.868 140.854 371.068 140.855 370.234V268.498C140.854 267.664 140.527 266.864 139.944 266.274C139.362 265.685 138.572 265.353 137.748 265.352H102.534Z" fill="#3F3D56"/>
</g>
<g id="book4">
<path id="Vector_21" d="M244.425 158.372H201.961V174.104H244.425V158.372Z" fill="#1DA85D"/>
<path id="Vector_22" d="M244.425 209.764H201.961V225.497H244.425V209.764Z" fill="#1DA85D"/>
<path id="Vector_23" d="M241.318 248.571H206.104C204.731 248.569 203.415 248.016 202.444 247.033C201.473 246.05 200.927 244.717 200.926 243.327V141.591C200.927 140.201 201.473 138.868 202.444 137.885C203.415 136.901 204.731 136.348 206.104 136.347H241.318C242.691 136.348 244.007 136.901 244.978 137.885C245.949 138.868 246.495 140.201 246.497 141.591V243.327C246.495 244.717 245.949 246.05 244.978 247.033C244.007 248.016 242.691 248.569 241.318 248.571V248.571ZM206.104 138.444C205.28 138.445 204.491 138.777 203.908 139.367C203.326 139.957 202.998 140.757 202.997 141.591V243.327C202.998 244.161 203.326 244.961 203.908 245.55C204.491 246.14 205.28 246.472 206.104 246.473H241.318C242.142 246.472 242.932 246.14 243.514 245.55C244.097 244.961 244.424 244.161 244.425 243.327V141.591C244.424 140.757 244.097 139.957 243.514 139.367C242.932 138.777 242.142 138.445 241.318 138.444H206.104Z" fill="#3F3D56"/>
</g>
<g id="book3">
<path id="Vector_24" d="M309.674 158.372H267.21V174.104H309.674V158.372Z" fill="#1DA85D"/>
<path id="Vector_25" d="M309.674 209.764H267.21V225.497H309.674V209.764Z" fill="#1DA85D"/>
<path id="Vector_26" d="M306.567 248.571H271.353C269.98 248.569 268.664 248.016 267.693 247.033C266.722 246.05 266.176 244.717 266.175 243.327V141.591C266.176 140.201 266.722 138.868 267.693 137.885C268.664 136.901 269.98 136.348 271.353 136.347H306.567C307.94 136.348 309.256 136.901 310.227 137.885C311.198 138.868 311.744 140.201 311.746 141.591V243.327C311.744 244.717 311.198 246.05 310.227 247.033C309.256 248.016 307.94 248.569 306.567 248.571V248.571ZM271.353 138.444C270.53 138.445 269.74 138.777 269.157 139.367C268.575 139.957 268.247 140.757 268.246 141.591V243.327C268.247 244.161 268.575 244.961 269.157 245.55C269.74 246.14 270.53 246.472 271.353 246.473H306.567C307.391 246.472 308.181 246.14 308.763 245.55C309.346 244.961 309.673 244.161 309.674 243.327V141.591C309.673 140.757 309.346 139.957 308.763 139.367C308.181 138.777 307.391 138.445 306.567 138.444H271.353Z" fill="#3F3D56"/>
</g>
<g id="book2">
<path id="Vector_27" d="M192.94 275.884L153.19 291.01L158.655 305.737L198.405 290.611L192.94 275.884Z" fill="#1DA85D"/>
<path id="Vector_28" d="M210.792 323.992L171.042 339.118L176.506 353.845L216.256 338.719L210.792 323.992Z" fill="#1DA85D"/>
<path id="Vector_29" d="M186.575 374.306C185.522 374.304 184.494 373.978 183.629 373.37C182.763 372.762 182.101 371.902 181.73 370.904L146.392 275.67C145.91 274.368 145.959 272.926 146.526 271.66C147.093 270.394 148.133 269.407 149.418 268.917L182.381 256.373C183.018 256.131 183.695 256.018 184.375 256.041C185.055 256.064 185.723 256.222 186.343 256.507C186.962 256.791 187.52 257.196 187.984 257.699C188.449 258.202 188.811 258.793 189.05 259.438L224.389 354.672C224.87 355.974 224.822 357.416 224.254 358.682C223.687 359.948 222.647 360.934 221.363 361.425H221.363L188.399 373.968C187.816 374.191 187.198 374.306 186.575 374.306V374.306ZM184.205 258.134C183.831 258.135 183.46 258.203 183.11 258.337L150.146 270.88C149.376 271.175 148.752 271.767 148.411 272.526C148.071 273.286 148.042 274.151 148.331 274.933L183.669 370.166C183.813 370.553 184.03 370.908 184.309 371.209C184.588 371.511 184.922 371.754 185.294 371.925C185.665 372.096 186.067 372.191 186.474 372.204C186.882 372.218 187.289 372.15 187.671 372.005L220.634 359.462C221.405 359.167 222.029 358.575 222.369 357.815C222.709 357.056 222.738 356.19 222.45 355.409L187.111 260.175C186.889 259.577 186.491 259.061 185.972 258.696C185.453 258.331 184.836 258.135 184.205 258.134V258.134Z" fill="#3F3D56"/>
</g>
<g id="book1">
<path id="Vector_30" d="M50.0138 151.074L10.2638 166.2L15.7285 180.927L55.4784 165.801L50.0138 151.074Z" fill="#1DA85D"/>
<path id="Vector_31" d="M67.865 199.182L28.1151 214.308L33.5798 229.035L73.3297 213.909L67.865 199.182Z" fill="#1DA85D"/>
<path id="Vector_32" d="M43.6484 249.497C42.5953 249.495 41.5677 249.168 40.7023 248.56C39.8369 247.952 39.1746 247.092 38.8036 246.094L3.46525 150.86C2.98395 149.558 3.03221 148.116 3.59944 146.85C4.16667 145.584 5.20656 144.598 6.49106 144.107L39.4547 131.564C40.0913 131.321 40.7688 131.208 41.4485 131.231C42.1282 131.254 42.7968 131.412 43.4161 131.697C44.0354 131.981 44.5933 132.387 45.0579 132.89C45.5225 133.393 45.8847 133.983 46.1238 134.628L81.4621 229.862C81.9434 231.164 81.8951 232.606 81.3279 233.872C80.7607 235.138 79.7208 236.125 78.4363 236.615H78.4362L45.4727 249.159C44.8896 249.382 44.2716 249.496 43.6484 249.497ZM41.278 133.324C40.904 133.325 40.5332 133.393 40.1833 133.527L7.21992 146.07C6.44914 146.365 5.82514 146.957 5.48477 147.716C5.1444 148.476 5.11545 149.342 5.40428 150.123L40.7426 245.357C40.8861 245.743 41.1034 246.098 41.3822 246.4C41.661 246.701 41.9957 246.945 42.3673 247.115C42.7388 247.286 43.14 247.381 43.5478 247.395C43.9556 247.408 44.3621 247.341 44.7441 247.195L77.7074 234.652C78.4782 234.357 79.1022 233.765 79.4426 233.006C79.7829 232.246 79.8119 231.381 79.5231 230.599L44.1847 135.366C43.962 134.767 43.5647 134.251 43.0455 133.886C42.5263 133.522 41.9098 133.326 41.278 133.324V133.324Z" fill="#3F3D56"/>
</g>
<g id="arm">
<path id="Vector_33" d="M506.747 378.07C508.264 378.665 509.891 378.916 511.514 378.805C513.137 378.695 514.716 378.225 516.141 377.429C517.565 376.634 518.8 375.532 519.758 374.201C520.716 372.87 521.374 371.342 521.686 369.725L609.966 313.321L593.898 295.002L512.137 356.243C509.42 355.892 506.671 356.563 504.41 358.127C502.149 359.692 500.533 362.042 499.869 364.733C499.204 367.423 499.538 370.267 500.805 372.725C502.073 375.183 504.187 377.085 506.747 378.07V378.07Z" fill="#FFB8B8"/>
<path id="Vector_34" d="M591.536 328.317C590.754 328.318 589.985 328.121 589.299 327.743C588.612 327.365 588.031 326.818 587.607 326.153L577.384 310.065C576.739 309.049 576.503 307.822 576.724 306.636C576.945 305.449 577.607 304.394 578.573 303.686L612.783 278.648C614.443 277.433 616.326 276.567 618.322 276.102C620.318 275.637 622.386 275.582 624.404 275.941C626.421 276.3 628.347 277.064 630.067 278.19C631.788 279.315 633.268 280.779 634.42 282.494C635.572 284.209 636.372 286.14 636.774 288.174C637.176 290.208 637.171 292.303 636.76 294.335C636.348 296.366 635.539 298.294 634.378 300.003C633.218 301.713 631.732 303.169 630.006 304.286L594.037 327.576C593.291 328.06 592.423 328.318 591.536 328.317V328.317Z" fill="#2F2E41"/>
</g>
<g id="foot2">
<path id="Vector_35" d="M606.81 609.208L594.114 609.207L588.072 559.61L606.813 559.611L606.81 609.208Z" fill="#FFB8B8"/>
<path id="Vector_36" d="M585.043 605.533H609.531V621.147H569.625C569.625 619.096 570.024 617.066 570.799 615.172C571.573 613.277 572.709 611.556 574.141 610.106C575.573 608.657 577.272 607.506 579.143 606.722C581.014 605.937 583.018 605.533 585.043 605.533V605.533Z" fill="#2F2E41"/>
</g>
<g id="foot1">
<path id="Vector_37" d="M666.087 599.594L653.862 603.07L634.807 556.974L652.85 551.844L666.087 599.594Z" fill="#FFB8B8"/>
<path id="Vector_38" d="M644.15 602.015L667.726 595.313L671.893 610.345L633.472 621.268C632.925 619.293 632.767 617.229 633.008 615.194C633.248 613.158 633.882 611.19 634.874 609.402C635.865 607.614 637.195 606.042 638.786 604.774C640.378 603.507 642.2 602.569 644.15 602.015V602.015Z" fill="#2F2E41"/>
</g>
<g id="mainBook">
<path id="Vector_39" d="M700.299 523.481L651.003 464.568L680.916 427.813C681.354 427.274 681.906 426.84 682.53 426.543C683.154 426.246 683.836 426.093 684.526 426.095C685.215 426.097 685.896 426.254 686.519 426.555C687.141 426.856 687.69 427.293 688.125 427.834L733.387 484.086L700.299 523.481Z" fill="#6A3916"/>
<path id="Vector_40" d="M652.992 465.006C653.719 463.681 654.62 462.463 655.671 461.384L684.222 432.072C685.341 430.918 686.848 430.233 688.443 430.153C691.706 429.997 697.056 430.331 698.547 433.955L660.001 465.893L652.992 465.006Z" fill="#F2F2F2"/>
<path id="Vector_41" d="M702.012 535.947C699.813 535.88 697.677 535.195 695.841 533.968L695.705 533.826L650.557 463.902L658.049 463.168L698.199 431.454C698.706 431.053 699.289 430.764 699.912 430.603C700.535 430.441 701.184 430.413 701.819 430.518C702.453 430.623 703.059 430.86 703.599 431.213C704.138 431.567 704.6 432.03 704.954 432.573L748.843 499.842C749.517 500.881 749.76 502.147 749.52 503.365C749.28 504.584 748.577 505.659 747.561 506.356L705.091 535.357C704.111 535.751 703.066 535.952 702.012 535.947Z" fill="#75AE2C"/>
<path id="Vector_42" d="M686.044 488.115C685.619 488.116 685.201 488.011 684.826 487.809C684.45 487.607 684.13 487.315 683.892 486.958L678.706 479.157C678.323 478.58 678.182 477.872 678.314 477.19C678.445 476.507 678.839 475.906 679.408 475.517L706.016 457.376C706.586 456.989 707.284 456.847 707.958 456.98C708.632 457.113 709.226 457.511 709.61 458.087L714.797 465.889C715.179 466.466 715.32 467.173 715.189 467.856C715.057 468.538 714.664 469.14 714.095 469.529L687.486 487.669C687.06 487.96 686.558 488.115 686.044 488.115Z" fill="#3F3D56"/>
</g>
<path id="legPants" d="M586.063 601.707C584.647 601.702 583.284 601.161 582.242 600.189C581.199 599.218 580.553 597.888 580.43 596.459C578.171 570.464 566.835 439.45 565.591 412.992C564.209 383.594 588.369 337.088 588.613 336.622L588.78 336.302L600.721 337.813V339.219L612.088 340.573L634.084 342.729L640.381 420.676L643.166 473.539L669.327 581.508C669.623 582.704 669.443 583.97 668.826 585.032C668.208 586.094 667.203 586.868 666.027 587.186L643.259 593.474C642.075 593.796 640.814 593.634 639.746 593.025C638.679 592.415 637.89 591.405 637.55 590.213L616.113 513.956C616.009 513.587 615.776 513.27 615.457 513.063C615.138 512.856 614.755 512.774 614.381 512.833C614.006 512.892 613.666 513.087 613.424 513.382C613.182 513.678 613.055 514.052 613.066 514.436L615.334 588.792C615.345 589.556 615.202 590.314 614.914 591.019C614.626 591.725 614.199 592.363 613.659 592.896C608.44 597.859 594.65 600.509 586.895 601.647C586.619 601.687 586.342 601.707 586.063 601.707V601.707Z" fill="#2F2E41"/>
<g id="upperBody">
<path id="Vector_43" d="M654.478 274.154C650.865 270.34 627.059 275.581 621.774 281.2L585.591 341.095L645.432 352.369L658.653 276.268L654.478 274.154Z" fill="#0094FF"/>
<path id="Vector_44" d="M638.793 426.324C637.504 426.325 636.224 426.109 635.005 425.685C631.528 424.478 627.268 423.214 622.341 421.931C600.763 416.312 593.145 398.323 599.698 368.462L599.864 367.704C606.017 339.379 617.615 312.557 633.997 288.767L636.535 285.076C639.598 280.622 643.886 277.178 648.866 275.173C653.846 273.167 659.298 272.688 664.545 273.795C674.254 275.823 679.467 278.761 680.039 282.529C681.163 289.923 659.476 379.304 650.101 417.389C649.472 419.943 648.017 422.211 645.968 423.831C643.918 425.45 641.393 426.328 638.793 426.324L638.793 426.324Z" fill="#2F2E41"/>
<path id="Vector_45" d="M564.46 414.85C563.896 414.85 563.335 414.761 562.798 414.588L555.804 412.322C555.081 412.088 554.414 411.703 553.846 411.193C553.279 410.682 552.822 410.058 552.506 409.359C552.19 408.66 552.022 407.901 552.012 407.133C552.002 406.364 552.15 405.602 552.448 404.894L589.558 316.685C596.669 299.858 609.101 285.901 624.9 277.011H624.9C625.129 276.883 625.382 276.804 625.642 276.78C625.903 276.755 626.165 276.785 626.414 276.867C626.642 276.941 626.853 277.062 627.032 277.223C627.211 277.384 627.355 277.582 627.455 277.803C631.819 287.526 608.064 333.541 588.976 370.514C579.202 389.446 570.761 405.797 569.8 410.459C569.544 411.701 568.873 412.815 567.9 413.615C566.928 414.415 565.713 414.851 564.46 414.85V414.85Z" fill="#2F2E41"/>
<path id="Vector_46" d="M679.273 434.95C680.576 433.965 681.651 432.702 682.42 431.251C683.19 429.8 683.636 428.195 683.727 426.551C683.818 424.906 683.551 423.261 682.947 421.732C682.342 420.203 681.414 418.827 680.227 417.7L679.932 311.996L656.069 316.05L663.874 418.732C662.138 420.876 661.238 423.591 661.346 426.362C661.454 429.133 662.562 431.768 664.46 433.767C666.358 435.766 668.914 436.991 671.644 437.209C674.375 437.427 677.089 436.623 679.273 434.95V434.95Z" fill="#FFB8B8"/>
<path id="Vector_47" d="M659.843 338.22C658.661 338.22 657.522 337.765 656.659 336.946C655.796 336.127 655.272 335.007 655.194 333.812L652.419 291.161C652.156 287.057 653.512 283.015 656.188 279.922C658.865 276.829 662.643 274.938 666.695 274.662C668.776 274.524 670.862 274.816 672.827 275.523C674.791 276.229 676.593 277.334 678.121 278.77C679.649 280.206 680.872 281.943 681.714 283.875C682.556 285.806 683 287.891 683.019 290.002L683.396 333.234C683.405 334.483 682.925 335.685 682.062 336.577C681.199 337.469 680.023 337.979 678.79 337.996L659.9 338.22L659.843 338.22Z" fill="#2F2E41"/>
</g>
<g id="head">
<path id="Vector_48" d="M649.384 262.205C667.116 262.205 681.49 247.649 681.49 229.692C681.49 211.735 667.116 197.178 649.384 197.178C631.652 197.178 617.277 211.735 617.277 229.692C617.277 247.649 631.652 262.205 649.384 262.205Z" fill="#2F2E41"/>
<path id="Vector_49" d="M642.77 263.859C656.819 263.859 668.208 252.326 668.208 238.099C668.208 223.872 656.819 212.339 642.77 212.339C628.721 212.339 617.332 223.872 617.332 238.099C617.332 252.326 628.721 263.859 642.77 263.859Z" fill="#FFB8B8"/>
<path id="Vector_50" d="M663.92 256.124C665.818 250.01 667.559 242.801 663.805 237.641C661.099 233.924 656.242 232.485 651.687 232.279C647.131 232.073 642.562 232.855 638.016 232.489C633.47 232.123 628.666 230.306 626.357 226.324C623.362 221.16 625.898 214.048 630.712 210.571C635.526 207.094 641.886 206.608 647.745 207.418C655.158 208.309 662.128 211.466 667.726 216.469C673.172 221.559 676.721 228.896 676.563 236.399C676.405 243.902 672.249 251.373 665.627 254.742" fill="#2F2E41"/>
<path id="ponytail" d="M657.578 199.836C651.488 197.937 648.679 189.784 651.402 183.95C654.126 178.116 661.087 175.061 667.408 175.874C673.73 176.686 679.3 180.793 683.142 185.941C686.984 191.089 689.301 197.225 691.232 203.375C693.164 209.524 694.77 215.806 697.408 221.679C701.595 230.704 708.053 238.454 716.134 244.151C724.215 249.847 733.634 253.29 743.445 254.133C747.722 254.446 752.16 254.222 756.057 252.412C759.954 250.601 763.223 246.952 763.659 242.633C765.877 257.976 757.063 274.282 743.105 280.658C729.146 287.034 711.242 282.932 701.352 271.093C691.688 259.523 690.191 243.188 690.424 228.036C690.488 223.881 690.639 219.648 689.505 215.654C688.372 211.66 685.689 207.863 681.782 206.594C678.629 205.571 675.214 206.309 671.982 207.034C668.749 207.76 665.317 208.458 662.187 207.364C659.058 206.271 656.538 202.666 657.799 199.566" fill="#2F2E41"/>
</g>
<path id="Vector_51" d="M758.218 623H484.793C484.518 623 484.255 622.889 484.061 622.693C483.866 622.496 483.757 622.229 483.757 621.951C483.757 621.673 483.866 621.406 484.061 621.21C484.255 621.013 484.518 620.902 484.793 620.902H758.218C758.492 620.902 758.756 621.013 758.95 621.21C759.144 621.406 759.253 621.673 759.253 621.951C759.253 622.229 759.144 622.496 758.95 622.693C758.756 622.889 758.492 623 758.218 623Z" fill="black"/>
<path id="Vector_52" d="M334.531 621.951H17.6069C12.9389 621.946 8.46353 620.066 5.16273 616.723C1.86193 613.38 0.00523312 608.848 0 604.121V17.83C0.00523312 13.1028 1.86193 8.57076 5.16273 5.22814C8.46353 1.88552 12.9389 0.00529942 17.6069 0H334.531C339.199 0.00532158 343.674 1.88554 346.975 5.22815C350.276 8.57077 352.133 13.1028 352.138 17.83V604.121C352.133 608.848 350.276 613.38 346.975 616.723C343.674 620.066 339.199 621.946 334.531 621.951V621.951ZM17.6069 2.09764C13.4881 2.10236 9.53926 3.76138 6.6268 6.71074C3.71434 9.6601 2.07606 13.6589 2.0714 17.83V604.121C2.07606 608.292 3.71434 612.291 6.6268 615.24C9.53926 618.19 13.4881 619.849 17.6069 619.854H334.531C338.65 619.849 342.599 618.19 345.511 615.24C348.424 612.291 350.062 608.292 350.066 604.121V17.83C350.062 13.6589 348.424 9.6601 345.511 6.71074C342.599 3.76138 338.65 2.10236 334.531 2.09764H17.6069Z" fill="#3F3D56"/>
</g>
</svg>
