<svg width="629" height="541" viewBox="0 0 629 541" fill="none" xmlns="http://www.w3.org/2000/svg">
<g id="undraw_Publish_article_re_3x8h(1) 1" clip-path="url(#clip0)">
<g id="window">
<path id="Rectangle 246" d="M532.59 0.431915H0.325134V313.909H532.59V0.431915Z" fill="#E6E6E6"/>
<path id="Rectangle 264" d="M532.264 0H0V32.3992H532.264V0Z" fill="#00B0FF"/>
<path id="Rectangle 247" d="M519.786 42.3507H12.2742V298.312H519.786V42.3507Z" fill="white"/>
<path id="Ellipse 194" d="M50.438 21.4763C53.398 21.4763 55.7975 19.0767 55.7975 16.1168C55.7975 13.1568 53.398 10.7573 50.438 10.7573C47.4781 10.7573 45.0786 13.1568 45.0786 16.1168C45.0786 19.0767 47.4781 21.4763 50.438 21.4763Z" fill="white"/>
<path id="Ellipse 195" d="M70.7817 21.4763C73.7416 21.4763 76.1411 19.0767 76.1411 16.1168C76.1411 13.1568 73.7416 10.7573 70.7817 10.7573C67.8217 10.7573 65.4222 13.1568 65.4222 16.1168C65.4222 19.0767 67.8217 21.4763 70.7817 21.4763Z" fill="white"/>
<path id="Ellipse 246" d="M30.0416 21.4763C33.0015 21.4763 35.401 19.0767 35.401 16.1168C35.401 13.1568 33.0015 10.7573 30.0416 10.7573C27.0816 10.7573 24.6821 13.1568 24.6821 16.1168C24.6821 19.0767 27.0816 21.4763 30.0416 21.4763Z" fill="white"/>
<path id="Rectangle 250" d="M460.595 86.5519H71.4653V96.7155H460.595V86.5519Z" fill="#E6E6E6"/>
<path id="Rectangle 251" d="M335.401 111.96H196.659V122.124H335.401V111.96Z" fill="#E6E6E6"/>
<path id="Rectangle 251_2" d="M335.401 163.5H196.659V173.664H335.401V163.5Z" fill="#E6E6E6"/>
<path id="Rectangle 251_3" d="M335.401 189.899H196.659V200.062H335.401V189.899Z" fill="#E6E6E6"/>
<path id="Rectangle 252" d="M404.231 137.369H127.829V147.533H404.231V137.369Z" fill="#E6E6E6"/>
<path id="Vector" d="M460.595 236.062H387.595V254.111H460.595V236.062Z" fill="#00B0FF"/>
</g>
<path id="Vector_2" d="M531.231 529.365L518.972 529.364L513.139 482.076L531.234 482.077L531.231 529.365Z" fill="#9F616A"/>
<path id="Vector_3" d="M510.215 525.861H533.858V540.748H495.328C495.328 536.8 496.896 533.013 499.688 530.221C502.48 527.429 506.266 525.861 510.215 525.861Z" fill="#2F2E41"/>
<path id="Vector_4" d="M577.231 529.365L564.972 529.364L559.139 482.076L577.234 482.077L577.231 529.365Z" fill="#9F616A"/>
<path id="Vector_5" d="M556.214 525.861H579.858V540.748H541.328C541.328 538.793 541.713 536.857 542.461 535.051C543.209 533.245 544.305 531.604 545.688 530.221C547.07 528.839 548.711 527.742 550.518 526.994C552.324 526.246 554.26 525.861 556.214 525.861Z" fill="#2F2E41"/>
<path id="Vector_6" d="M575.734 388.526C574.413 387.676 573.295 386.547 572.457 385.219C571.62 383.89 571.084 382.394 570.888 380.836C570.691 379.278 570.838 377.696 571.319 376.201C571.8 374.705 572.603 373.334 573.672 372.183L565.599 257.625L588.852 259.88L589.491 372.067C591.306 373.99 592.352 376.512 592.432 379.155C592.512 381.798 591.619 384.378 589.923 386.407C588.227 388.436 585.846 389.772 583.231 390.163C580.616 390.553 577.949 389.971 575.734 388.526L575.734 388.526Z" fill="#9F616A"/>
<path id="Vector_7" d="M530.652 505.542L517.156 504.898C516.006 504.844 514.921 504.351 514.124 503.521C513.327 502.69 512.878 501.586 512.87 500.435L511.928 363.879C511.924 363.23 512.059 362.589 512.326 361.998C512.592 361.407 512.983 360.881 513.472 360.455C513.96 360.029 514.535 359.713 515.157 359.53C515.779 359.347 516.433 359.3 517.075 359.393L571.068 367.231C572.135 367.381 573.112 367.91 573.82 368.722C574.528 369.534 574.919 370.574 574.922 371.651L581.866 498.185C581.871 498.779 581.757 499.368 581.533 499.918C581.309 500.468 580.978 500.968 580.56 501.389C580.142 501.811 579.644 502.145 579.096 502.374C578.548 502.602 577.96 502.719 577.366 502.719H562.816C561.743 502.724 560.703 502.342 559.887 501.645C559.071 500.947 558.533 499.98 558.371 498.919C558.371 498.919 547.381 404.007 545.872 404.062C544.354 404.091 535.335 501.582 535.335 501.582C535.2 502.674 534.672 503.679 533.85 504.409C533.027 505.139 531.966 505.544 530.866 505.548C530.795 505.548 530.724 505.546 530.652 505.542Z" fill="#2F2E41"/>
<path id="Vector_8" d="M461.971 246.431C462.094 246.97 462.174 247.519 462.21 248.071L505.168 272.853L515.609 266.842L526.741 281.414L504.403 297.335L455.395 258.672C453.397 259.412 451.22 259.525 449.155 258.998C447.09 258.47 445.235 257.327 443.835 255.719C442.436 254.111 441.56 252.116 441.322 249.998C441.085 247.879 441.498 245.739 442.507 243.862C443.515 241.984 445.072 240.458 446.969 239.487C448.866 238.515 451.013 238.144 453.126 238.423C455.239 238.702 457.217 239.618 458.797 241.048C460.377 242.478 461.484 244.356 461.971 246.431V246.431Z" fill="#9F616A"/>
<g id="head">
<path id="Vector_9" d="M550.975 222.737C564.54 222.737 575.536 211.741 575.536 198.176C575.536 184.611 564.54 173.615 550.975 173.615C537.41 173.615 526.414 184.611 526.414 198.176C526.414 211.741 537.41 222.737 550.975 222.737Z" fill="#9F616A"/>
<path id="Vector_10" d="M568.356 217.608C563.774 222.488 555.264 219.868 554.667 213.201C554.62 212.683 554.624 212.162 554.677 211.645C554.986 208.691 556.692 206.01 556.283 202.891C556.191 202.115 555.901 201.375 555.443 200.742C551.792 195.853 543.221 202.929 539.775 198.503C537.662 195.789 540.146 191.516 538.524 188.483C536.384 184.479 530.045 186.454 526.07 184.261C521.648 181.822 521.912 175.036 524.823 170.909C528.374 165.875 534.599 163.189 540.747 162.802C546.894 162.415 553 164.077 558.739 166.314C565.26 168.855 571.727 172.367 575.74 178.101C580.62 185.074 581.09 194.449 578.649 202.603C577.164 207.563 572.097 213.622 568.356 217.608Z" fill="#2F2E41"/>
</g>
<path id="Vector_11" d="M627.952 540.562H434.952C434.687 540.562 434.432 540.457 434.245 540.269C434.057 540.082 433.952 539.827 433.952 539.562C433.952 539.297 434.057 539.043 434.245 538.855C434.432 538.668 434.687 538.562 434.952 538.562H627.952C628.217 538.562 628.471 538.668 628.659 538.855C628.846 539.043 628.952 539.297 628.952 539.562C628.952 539.827 628.846 540.082 628.659 540.269C628.471 540.457 628.217 540.562 627.952 540.562Z" fill="#3F3D56"/>
<g id="personTop">
<path id="Vector_12" d="M570.863 296.118C570.319 295.727 569.869 295.218 569.547 294.629C569.225 294.041 569.04 293.387 569.004 292.717L567.301 261.841C567.132 258.782 568.102 255.769 570.023 253.383C571.945 250.997 574.682 249.406 577.706 248.919C580.731 248.431 583.829 249.08 586.403 250.741C588.977 252.402 590.845 254.958 591.647 257.915L599.132 285.519C599.442 286.671 599.284 287.899 598.69 288.934C598.097 289.969 597.117 290.727 595.966 291.04L574.675 296.813C574.028 296.989 573.35 297.019 572.69 296.899C572.03 296.778 571.406 296.512 570.863 296.118Z" fill="#3F3D56"/>
<path id="Vector_13" d="M506.702 270.746C506.631 270.079 506.71 269.404 506.933 268.772C507.157 268.14 507.52 267.566 507.995 267.092L529.859 245.224C532.025 243.057 534.917 241.77 537.976 241.609C541.035 241.448 544.046 242.426 546.427 244.353C548.809 246.281 550.392 249.022 550.872 252.048C551.352 255.074 550.695 258.17 549.027 260.74L533.457 284.732C532.806 285.732 531.786 286.433 530.619 286.682C529.452 286.93 528.234 286.706 527.232 286.057L508.728 274.049C508.165 273.685 507.69 273.199 507.34 272.627C506.989 272.056 506.771 271.413 506.702 270.746V270.746Z" fill="#3F3D56"/>
<path id="Vector_14" d="M575.49 239.143C575.064 238.837 574.629 238.536 574.185 238.24C571.827 236.672 569.273 235.419 566.59 234.516V228.062H547.59V234.05C541.291 235.787 535.642 239.338 531.346 244.261C527.05 249.183 524.296 255.26 523.426 261.736L510.489 357.787C510.406 358.387 510.445 358.998 510.605 359.583C510.765 360.168 511.042 360.714 511.42 361.188C511.789 361.659 512.25 362.05 512.775 362.338C513.3 362.626 513.878 362.804 514.473 362.861C518.956 363.308 528.254 365.046 540.153 371.657C545.875 374.827 552.317 376.471 558.859 376.431C564.052 376.411 569.203 375.494 574.085 373.72C574.912 373.415 575.631 372.872 576.15 372.16C576.669 371.447 576.966 370.597 577.003 369.716C577.469 359.379 580.193 306.172 588.127 273.717C589.669 267.35 589.292 260.669 587.043 254.517C584.794 248.364 580.775 243.015 575.49 239.143Z" fill="#3F3D56"/>
</g>
</g>
<defs>
<clipPath id="clip0">
<rect width="628.952" height="540.749" fill="white"/>
</clipPath>
</defs>
</svg>
