<svg width="338" height="99" viewBox="0 0 338 99" fill="none" xmlns="http://www.w3.org/2000/svg">
<g id="wholeImage">
<path id="Vector" d="M321 98.4999H17.0002C12.6256 98.4949 8.43163 96.755 5.33835 93.6617C2.24507 90.5684 0.505094 86.3744 0.500153 81.9999V16.9999C0.505094 12.6253 2.24507 8.43135 5.33835 5.33807C8.43163 2.24479 12.6256 0.504819 17.0002 0.499878H321C325.375 0.504907 329.569 2.2449 332.662 5.33817C335.755 8.43143 337.495 12.6253 337.5 16.9999V81.9999C337.495 86.3744 335.755 90.5683 332.662 93.6616C329.569 96.7549 325.375 98.4948 321 98.4999V98.4999Z" fill="white"/>
<path id="Vector_2" d="M321 99H17C12.4929 98.9949 8.17179 97.2022 4.98477 94.0152C1.79775 90.8282 0.00507123 86.5071 0 82V17C0.00507387 12.4929 1.79775 8.17182 4.98477 4.9848C8.17179 1.79778 12.4929 0.00507387 17 0H321C325.507 0.00507387 329.828 1.79778 333.015 4.9848C336.202 8.17182 337.995 12.4929 338 17V82C337.995 86.5071 336.202 90.8282 333.015 94.0152C329.828 97.2022 325.507 98.9949 321 99ZM17 2C13.0231 2.0045 9.21042 3.58631 6.39835 6.39838C3.58628 9.21045 2.0045 13.0231 2 17V82C2.0045 85.9769 3.58628 89.7896 6.39835 92.6017C9.21042 95.4137 13.0231 96.9955 17 97H321C324.977 96.9955 328.79 95.4137 331.602 92.6017C334.414 89.7896 335.995 85.9769 336 82V17C335.995 13.0231 334.414 9.21045 331.602 6.39838C328.79 3.58631 324.977 2.0045 321 2H17Z" fill="#3F3D56"/>
<path id="Vector_3" d="M284 82.5H54C49.6254 82.4951 45.4314 80.7551 42.3382 77.6618C39.2449 74.5685 37.5049 70.3746 37.5 66V32C37.5049 27.6254 39.2449 23.4315 42.3382 20.3382C45.4315 17.2449 49.6254 15.5049 54 15.5H284C288.375 15.5049 292.568 17.2449 295.662 20.3382C298.755 23.4315 300.495 27.6254 300.5 32V66C300.495 70.3746 298.755 74.5685 295.662 77.6618C292.568 80.7551 288.375 82.4951 284 82.5Z" fill="#F2F2F2"/>
<path id="sun" d="M103.495 64.1743C114.393 64.1743 123.227 55.3399 123.227 44.4421C123.227 33.5442 114.393 24.7098 103.495 24.7098C92.5971 24.7098 83.7627 33.5442 83.7627 44.4421C83.7627 55.3399 92.5971 64.1743 103.495 64.1743Z" fill="#FF6584"/>
<path id="Vector_5" d="M269.707 80.5087L241.854 57.149L214.483 34.1926C213.76 33.5868 212.847 33.2557 211.905 33.2575C210.962 33.2593 210.05 33.5941 209.33 34.2026L182.047 57.2643L175.383 62.8976L165.334 54.4702L134.797 28.8593C134.075 28.2535 133.162 27.9223 132.219 27.9241C131.277 27.9259 130.365 28.2606 129.645 28.8692L99.207 54.5975L68.29 80.731C68.1333 80.8634 68.0212 81.0407 67.9687 81.239C67.9163 81.4372 67.9261 81.6468 67.9968 81.8393C68.0674 82.0319 68.1956 82.198 68.3638 82.3152C68.5321 82.4325 68.7323 82.4951 68.9374 82.4947L132.324 82.3726L152.388 82.334L152.192 82.5L211.999 82.3847L269.066 82.2748C269.271 82.2745 269.471 82.2111 269.639 82.0932C269.807 81.9753 269.935 81.8087 270.005 81.6159C270.074 81.4231 270.083 81.2134 270.03 81.0154C269.977 80.8173 269.864 80.6404 269.707 80.5087V80.5087Z" fill="#3F3D56"/>
</g>
</svg>
